<?xml version="1.0" encoding="UTF-8"?> <svg xmlns="http://www.w3.org/2000/svg" width="228" height="38" viewBox="0 0 228 38" fill="none"> <path d="M73.6137 11.3724C70.3563 11.3541 64.1815 11.3724 63.2827 11.3724C59.2937 7.87369 55.8326 3.90424 52.2535 0V35H40.5586V0H73.6137V11.3724Z" fill="#1E30D3"></path> <path d="M0 0H12.6667V34.9549H0V0Z" fill="#1E30D3"></path> <path d="M34.9601 0H21.7865V5.5725L11.1465 16.2111H26.3466L34.9601 7.59886V0Z" fill="#1E30D3"></path> <path d="M34.9601 34.9609H21.7865V29.3884L11.1465 18.75H26.3466L34.9601 27.362V34.9609Z" fill="#1E30D3"></path> <path d="M88.6447 0H76.7988L84.3188 17.5667H96.1647L88.6447 0Z" fill="#1E30D3"></path> <path d="M115 0H103.154L89.7109 35H101.557L115 0Z" fill="#1E30D3"></path> <path d="M132.009 16.8618V15.501H127.629V22.0145H129.338V16.8618H132.009Z" fill="#1E30D3"></path> <path fill-rule="evenodd" clip-rule="evenodd" d="M132.352 18.6862V18.813C132.352 19.2864 132.42 19.7259 132.554 20.131C132.689 20.5325 132.884 20.8836 133.142 21.1846C133.403 21.482 133.721 21.7125 134.097 21.8768C134.477 22.0416 134.91 22.1238 135.397 22.1238C135.883 22.1238 136.314 22.0416 136.69 21.8768C137.066 21.7125 137.383 21.482 137.64 21.1846C137.901 20.8836 138.099 20.5325 138.233 20.131C138.368 19.7259 138.435 19.2864 138.435 18.813V18.6862C138.435 18.2088 138.368 17.7693 138.233 17.3678C138.099 16.9627 137.901 16.6112 137.64 16.3146C137.383 16.0176 137.064 15.7867 136.684 15.6224C136.304 15.4536 135.871 15.3691 135.385 15.3691C134.898 15.3691 134.467 15.4536 134.091 15.6224C133.715 15.7867 133.399 16.0176 133.142 16.3146C132.884 16.6112 132.689 16.9627 132.554 17.3678C132.42 17.7693 132.352 18.2088 132.352 18.6862ZM134.061 18.813V18.6862C134.061 18.4213 134.085 18.1726 134.133 17.9399C134.18 17.7032 134.255 17.4946 134.358 17.3137C134.465 17.1293 134.601 16.985 134.767 16.8801C134.938 16.776 135.143 16.7237 135.385 16.7237C135.626 16.7237 135.832 16.776 136.002 16.8801C136.172 16.985 136.308 17.1293 136.411 17.3137C136.518 17.4946 136.595 17.7032 136.643 17.9399C136.694 18.1726 136.72 18.4213 136.72 18.6862V18.813C136.72 19.0855 136.694 19.3405 136.643 19.5772C136.595 19.8143 136.52 20.0229 136.417 20.2034C136.314 20.3798 136.178 20.5187 136.008 20.6187C135.838 20.7192 135.634 20.7697 135.397 20.7697C135.151 20.7697 134.944 20.7192 134.773 20.6187C134.603 20.5187 134.465 20.3798 134.358 20.2034C134.255 20.0229 134.18 19.8143 134.133 19.5772C134.085 19.3405 134.061 19.0855 134.061 18.813Z" fill="#1E30D3"></path> <path d="M142.694 20.6491C142.532 20.729 142.346 20.7697 142.136 20.7697C141.883 20.7697 141.677 20.717 141.519 20.6129C141.361 20.5084 141.236 20.3659 141.145 20.1855C141.058 20.0046 140.999 19.7978 140.967 19.5656C140.936 19.3324 140.92 19.0895 140.92 18.8367V18.6621C140.92 18.4097 140.936 18.1686 140.967 17.9399C141.003 17.7072 141.064 17.5004 141.151 17.32C141.238 17.1351 141.361 16.9904 141.519 16.8863C141.677 16.7782 141.881 16.7237 142.13 16.7237C142.364 16.7237 142.559 16.7782 142.718 16.8863C142.88 16.9904 143.003 17.1311 143.086 17.3079C143.173 17.4843 143.218 17.6808 143.222 17.8979H144.83C144.826 17.3803 144.71 16.9328 144.48 16.5554C144.255 16.1739 143.942 15.881 143.543 15.6764C143.147 15.4719 142.686 15.3691 142.16 15.3691C141.665 15.3691 141.234 15.4536 140.866 15.6224C140.498 15.7908 140.192 16.0257 139.947 16.3262C139.701 16.6237 139.517 16.9725 139.395 17.374C139.272 17.7711 139.211 18.2007 139.211 18.6621V18.8367C139.211 19.2945 139.272 19.7241 139.395 20.1252C139.517 20.5227 139.701 20.8715 139.947 21.1725C140.192 21.4695 140.498 21.7027 140.866 21.871C141.238 22.0399 141.673 22.1238 142.172 22.1238C142.666 22.1238 143.113 22.0233 143.513 21.8228C143.912 21.6182 144.231 21.3391 144.468 20.9858C144.706 20.629 144.826 20.2212 144.83 19.7639H143.222C143.218 19.9689 143.169 20.1475 143.074 20.2998C142.983 20.4481 142.856 20.5647 142.694 20.6491Z" fill="#1E30D3"></path> <path d="M147.438 22.035L145.181 15.501H147.015L148.224 19.5934L149.43 15.501H151.263L148.682 22.9957C148.627 23.1605 148.552 23.3369 148.457 23.5258C148.366 23.7143 148.241 23.893 148.083 24.0613C147.928 24.2342 147.733 24.3744 147.495 24.483C147.262 24.5915 146.975 24.6455 146.635 24.6455C146.473 24.6455 146.34 24.6353 146.237 24.6152C146.134 24.5951 146.012 24.5674 145.869 24.5307V23.2606H146.006C146.053 23.2646 146.099 23.2668 146.142 23.2668C146.368 23.2668 146.552 23.2405 146.694 23.1887C146.837 23.1364 146.951 23.056 147.038 22.9475C147.125 22.8434 147.195 22.7067 147.246 22.5384L147.438 22.035Z" fill="#1E30D3"></path> <path fill-rule="evenodd" clip-rule="evenodd" d="M152.771 15.501L152.718 17.6805C152.71 18.0454 152.688 18.3665 152.653 18.6434C152.621 18.9203 152.569 19.1713 152.498 19.396C152.427 19.6206 152.326 19.8354 152.196 20.04C152.065 20.241 151.899 20.4477 151.697 20.6603H151.145V23.9711H152.896V22.0145H156.7V23.9711H158.409V20.6603H157.489V15.501H152.771ZM154.446 16.8913L154.427 17.6805C154.411 18.3786 154.332 18.9788 154.19 19.4804C154.059 19.9413 153.888 20.3347 153.676 20.6603H155.786V16.8913H154.446Z" fill="#1E30D3"></path> <path fill-rule="evenodd" clip-rule="evenodd" d="M162.816 21.3918C162.755 21.4628 162.689 21.5325 162.618 21.5999C162.451 21.7527 162.252 21.8791 162.018 21.9791C161.785 22.0756 161.508 22.1238 161.188 22.1238C160.78 22.1238 160.41 22.0416 160.078 21.8768C159.749 21.7085 159.488 21.4776 159.294 21.1846C159.105 20.8876 159.01 20.5504 159.01 20.1734C159.01 19.8322 159.073 19.529 159.199 19.2641C159.326 18.9993 159.512 18.7764 159.758 18.596C160.007 18.4115 160.317 18.2731 160.689 18.1806C161.061 18.0841 161.492 18.0359 161.983 18.0359H162.748V17.6331C162.748 17.424 162.715 17.2458 162.647 17.0971C162.58 16.9444 162.475 16.8265 162.333 16.742C162.194 16.6576 162.014 16.6152 161.793 16.6152C161.603 16.6152 161.439 16.6496 161.301 16.7179C161.162 16.7822 161.055 16.8765 160.98 17.0006C160.905 17.1212 160.867 17.2637 160.867 17.4285H159.158C159.158 17.1512 159.222 16.8885 159.348 16.6393C159.474 16.3906 159.659 16.1722 159.9 15.9837C160.141 15.7907 160.428 15.6402 160.76 15.5317C161.097 15.4236 161.472 15.3691 161.888 15.3691C162.387 15.3691 162.829 15.4536 163.217 15.6224C163.605 15.7908 163.909 16.0435 164.131 16.3807C164.356 16.7179 164.469 17.1395 164.469 17.6451V20.4325C164.469 20.7893 164.491 21.0823 164.534 21.311C164.578 21.5356 164.641 21.7326 164.724 21.901V22.0032H162.997C162.919 21.838 162.859 21.6343 162.816 21.3918ZM162.748 20.1627C162.727 20.2038 162.701 20.2453 162.671 20.2878C162.568 20.4401 162.422 20.5687 162.232 20.6732C162.042 20.7773 161.818 20.8295 161.561 20.8295C161.391 20.8295 161.243 20.7974 161.116 20.733C160.99 20.6647 160.893 20.5727 160.826 20.4566C160.758 20.336 160.725 20.2011 160.725 20.0528C160.725 19.9046 160.748 19.7683 160.796 19.6433C160.847 19.5191 160.926 19.4111 161.033 19.3186C161.14 19.2221 161.277 19.148 161.443 19.0957C161.609 19.0435 161.805 19.0176 162.03 19.0176H162.748V20.1627Z" fill="#1E30D3"></path> <path fill-rule="evenodd" clip-rule="evenodd" d="M167.494 21.4378V24.5079H165.785V15.4897H167.369L167.433 16.1311C167.607 15.914 167.809 15.7403 168.04 15.6099C168.328 15.4495 168.667 15.3691 169.054 15.3691C169.462 15.3691 169.82 15.4477 170.129 15.6041C170.441 15.7608 170.702 15.9855 170.912 16.2785C171.126 16.5714 171.286 16.9207 171.393 17.3258C171.503 17.7313 171.559 18.1806 171.559 18.6746V18.8005C171.559 19.2744 171.503 19.7139 171.393 20.1194C171.286 20.5245 171.128 20.8777 170.918 21.1783C170.708 21.4758 170.447 21.7085 170.135 21.8768C169.826 22.0416 169.47 22.1238 169.066 22.1238C168.675 22.1238 168.335 22.0434 168.046 21.8831C167.839 21.7679 167.655 21.6191 167.494 21.4378ZM167.494 20.0944C167.584 20.2882 167.713 20.445 167.879 20.5647C168.07 20.7013 168.319 20.7697 168.627 20.7697C168.853 20.7697 169.043 20.7192 169.197 20.6187C169.351 20.5142 169.476 20.3722 169.571 20.1917C169.67 20.0109 169.739 19.8018 169.778 19.5656C169.822 19.3284 169.844 19.0739 169.844 18.8005V18.6746C169.844 18.3972 169.82 18.1426 169.773 17.91C169.729 17.6733 169.658 17.4665 169.559 17.2896C169.464 17.1132 169.337 16.9765 169.179 16.8801C169.025 16.78 168.837 16.73 168.616 16.73C168.382 16.73 168.182 16.768 168.016 16.8443C167.854 16.9207 167.721 17.031 167.619 17.1753C167.571 17.2414 167.53 17.3128 167.494 17.3905V20.0944Z" fill="#1E30D3"></path> <path d="M175.833 20.6491C175.671 20.729 175.485 20.7697 175.275 20.7697C175.022 20.7697 174.816 20.717 174.658 20.6129C174.5 20.5084 174.375 20.3659 174.284 20.1855C174.197 20.0046 174.138 19.7978 174.106 19.5656C174.075 19.3324 174.059 19.0895 174.059 18.8367V18.6621C174.059 18.4097 174.075 18.1686 174.106 17.9399C174.142 17.7072 174.203 17.5004 174.29 17.32C174.377 17.1351 174.5 16.9904 174.658 16.8863C174.816 16.7782 175.02 16.7237 175.27 16.7237C175.503 16.7237 175.699 16.7782 175.857 16.8863C176.019 16.9904 176.142 17.1311 176.224 17.3079C176.312 17.4843 176.357 17.6808 176.361 17.8979H177.97C177.966 17.3803 177.849 16.9328 177.619 16.5554C177.394 16.1739 177.081 15.881 176.682 15.6764C176.286 15.4719 175.825 15.3691 175.299 15.3691C174.805 15.3691 174.373 15.4536 174.005 15.6224C173.638 15.7908 173.331 16.0257 173.086 16.3262C172.84 16.6237 172.656 16.9725 172.534 17.374C172.411 17.7711 172.35 18.2007 172.35 18.6621V18.8367C172.35 19.2945 172.411 19.7241 172.534 20.1252C172.656 20.5227 172.84 20.8715 173.086 21.1725C173.331 21.4695 173.638 21.7027 174.005 21.871C174.377 22.0399 174.813 22.1238 175.311 22.1238C175.806 22.1238 176.252 22.0233 176.652 21.8228C177.052 21.6182 177.37 21.3391 177.607 20.9858C177.845 20.629 177.966 20.2212 177.97 19.7639H176.361C176.357 19.9689 176.308 20.1475 176.213 20.2998C176.122 20.4481 175.996 20.5647 175.833 20.6491Z" fill="#1E30D3"></path> <path d="M182.229 22.0145V16.8435H184.294V15.501H178.478V16.8435H180.513V22.0145H182.229Z" fill="#1E30D3"></path> <path fill-rule="evenodd" clip-rule="evenodd" d="M189.512 18.6747C189.755 18.588 189.96 18.479 190.127 18.3486C190.301 18.212 190.431 18.0556 190.519 17.8788C190.61 17.7024 190.655 17.5134 190.655 17.3129C190.655 17.0039 190.591 16.7368 190.465 16.5121C190.343 16.2839 190.162 16.095 189.925 15.9467C189.692 15.798 189.409 15.6877 189.077 15.6153C188.744 15.5389 188.368 15.501 187.949 15.501H185.279V22.0145H188.364C188.788 22.0145 189.162 21.9765 189.486 21.9001C189.81 21.8202 190.083 21.7036 190.305 21.5509C190.531 21.3946 190.7 21.1999 190.815 20.9672C190.93 20.7345 190.988 20.4634 190.988 20.1548C190.988 19.8899 190.916 19.647 190.774 19.4259C190.635 19.2012 190.42 19.0168 190.127 18.8721C189.95 18.7854 189.746 18.7193 189.512 18.6747ZM186.988 19.2937V20.6724H188.364C188.574 20.6724 188.746 20.646 188.881 20.5938C189.015 20.5415 189.114 20.4656 189.177 20.3651C189.245 20.2606 189.278 20.1364 189.278 19.9917C189.278 19.8515 189.249 19.7291 189.189 19.6246C189.13 19.5201 189.033 19.4402 188.898 19.3839C188.768 19.3236 188.59 19.2937 188.364 19.2937H186.988ZM188.003 18.1557C188.224 18.1557 188.404 18.1338 188.542 18.0896C188.681 18.0418 188.782 17.9712 188.845 17.8788C188.913 17.7823 188.946 17.6662 188.946 17.53C188.946 17.4094 188.925 17.3071 188.881 17.2227C188.841 17.1343 188.78 17.0624 188.697 17.0061C188.614 16.9498 188.509 16.9096 188.382 16.8855C188.26 16.8574 188.115 16.8435 187.949 16.8435H186.988V18.1557H188.003Z" fill="#1E30D3"></path> <path fill-rule="evenodd" clip-rule="evenodd" d="M193.653 21.8831C194.048 22.0434 194.495 22.1238 194.994 22.1238C195.409 22.1238 195.779 22.0675 196.103 21.955C196.428 21.8389 196.705 21.6901 196.934 21.5097C197.168 21.3293 197.352 21.1404 197.486 20.9438L196.656 20.0287C196.462 20.2779 196.23 20.4642 195.961 20.5888C195.696 20.7089 195.409 20.7697 195.101 20.7697C194.851 20.7697 194.628 20.7255 194.43 20.637C194.236 20.5486 194.07 20.424 193.932 20.2636C193.797 20.1033 193.692 19.9126 193.617 19.6915C193.575 19.562 193.546 19.4258 193.528 19.2824H197.629V18.5598C197.629 18.0824 197.567 17.6491 197.445 17.2597C197.322 16.8662 197.14 16.529 196.899 16.2485C196.661 15.9672 196.367 15.7506 196.015 15.5983C195.662 15.4455 195.259 15.3691 194.804 15.3691C194.337 15.3691 193.918 15.4518 193.546 15.6161C193.174 15.7769 192.858 16.0074 192.596 16.3084C192.339 16.6094 192.141 16.9645 192.003 17.374C191.865 17.7836 191.795 18.2347 191.795 18.7282V18.9693C191.795 19.4026 191.869 19.8121 192.015 20.1971C192.161 20.5785 192.371 20.9139 192.644 21.2024C192.921 21.4914 193.257 21.7183 193.653 21.8831ZM193.549 18.1266C193.559 18.0609 193.569 17.9966 193.582 17.9341C193.633 17.6889 193.708 17.4763 193.807 17.2959C193.91 17.1154 194.042 16.9747 194.204 16.8742C194.367 16.7738 194.561 16.7237 194.786 16.7237C195.051 16.7237 195.269 16.78 195.439 16.8926C195.609 17.0051 195.736 17.1574 195.818 17.3499C195.906 17.5388 195.949 17.7532 195.949 17.9939V18.1266H193.549Z" fill="#1E30D3"></path> <path d="M202.442 19.4804H200.307V22.0145H198.597V15.501H200.307V18.132H202.442V15.501H204.158V22.0145H202.442V19.4804Z" fill="#1E30D3"></path> <path d="M209.325 19.4804H207.188V22.0145H205.479V15.501H207.188V18.132H209.325V15.501H211.039V22.0145H209.325V19.4804Z" fill="#1E30D3"></path> <path fill-rule="evenodd" clip-rule="evenodd" d="M215.414 17.4335H214.197V15.501H212.482V22.0145H215.414C215.853 22.0145 216.245 21.9587 216.589 21.8461C216.933 21.734 217.223 21.575 217.461 21.3705C217.698 21.1659 217.878 20.9252 218.001 20.6483C218.128 20.3669 218.191 20.0623 218.191 19.7332C218.191 19.2794 218.08 18.8801 217.859 18.5353C217.641 18.1901 217.324 17.9212 216.909 17.7287C216.498 17.5318 215.999 17.4335 215.414 17.4335ZM214.197 18.7877V20.6661H215.414C215.671 20.6661 215.877 20.6242 216.031 20.5397C216.189 20.4513 216.304 20.337 216.375 20.1967C216.45 20.0561 216.488 19.9038 216.488 19.739C216.488 19.5666 216.45 19.4098 216.375 19.2696C216.304 19.1249 216.189 19.0087 216.031 18.9203C215.877 18.8319 215.671 18.7877 215.414 18.7877H214.197Z" fill="#1E30D3"></path> <path d="M220.934 22.0145V15.501H219.225V22.0145H220.934Z" fill="#1E30D3"></path> <path d="M226.291 15.501L224.137 19.5947V15.501H222.428V22.0145H224.137L226.291 17.915V22.0145H228V15.501H226.291Z" fill="#1E30D3"></path> <path d="M227.311 12.875H226.094C226.094 13.084 226.031 13.2707 225.905 13.4351C225.778 13.5999 225.561 13.682 225.252 13.682C224.939 13.682 224.718 13.5999 224.587 13.4351C224.461 13.2707 224.397 13.084 224.397 12.875H223.187C223.187 13.3971 223.371 13.8223 223.738 14.1514C224.11 14.4806 224.615 14.6454 225.252 14.6454C225.671 14.6454 226.035 14.5708 226.344 14.4225C226.652 14.2702 226.89 14.0612 227.056 13.7964C227.226 13.5275 227.311 13.2207 227.311 12.875Z" fill="#1E30D3"></path> <path d="M129.257 35.1337L127 28.5996H128.834L130.043 32.692L131.249 28.5996H133.083L130.501 36.0943C130.446 36.2591 130.371 36.4356 130.276 36.624C130.185 36.813 130.06 36.9916 129.902 37.16C129.747 37.3324 129.552 37.473 129.314 37.5811C129.081 37.6897 128.794 37.7442 128.454 37.7442C128.292 37.7442 128.159 37.7339 128.056 37.7138C127.953 37.6937 127.831 37.6655 127.688 37.6294V36.3592H127.825C127.872 36.3632 127.918 36.3654 127.961 36.3654C128.187 36.3654 128.371 36.3391 128.513 36.2868C128.656 36.235 128.77 36.1546 128.857 36.0461C128.944 35.942 129.014 35.8054 129.065 35.637L129.257 35.1337Z" fill="#1E30D3"></path> <path d="M137.605 32.579H135.469V35.1131H133.76V28.5996H135.469V31.2302H137.605V28.5996H139.32V35.1131H137.605V32.579Z" fill="#1E30D3"></path> <path d="M144.507 28.5996L142.352 32.6933V28.5996H140.643V35.1131H142.352L144.507 31.0136V35.1131H146.215V28.5996H144.507Z" fill="#1E30D3"></path> <path fill-rule="evenodd" clip-rule="evenodd" d="M151.878 31.7733C152.121 31.6866 152.326 31.5777 152.493 31.4473C152.667 31.3106 152.797 31.1543 152.884 30.9774C152.975 30.801 153.021 30.6121 153.021 30.4115C153.021 30.1025 152.957 29.8354 152.831 29.6108C152.708 29.3821 152.528 29.1936 152.291 29.0449C152.058 28.8966 151.775 28.7858 151.442 28.7139C151.11 28.6376 150.734 28.5996 150.315 28.5996H147.645V35.1131H150.73C151.154 35.1131 151.528 35.0752 151.852 34.9988C152.176 34.9188 152.449 34.8023 152.671 34.6495C152.896 34.4932 153.066 34.2985 153.181 34.0658C153.296 33.8331 153.353 33.562 153.353 33.2529C153.353 32.9881 153.282 32.7451 153.14 32.5245C153.001 32.2999 152.786 32.1154 152.493 31.9707C152.316 31.8836 152.111 31.818 151.878 31.7733ZM149.354 32.3919V33.7706H150.73C150.94 33.7706 151.112 33.7447 151.247 33.6924C151.381 33.6402 151.48 33.5642 151.543 33.4638C151.61 33.3592 151.644 33.2346 151.644 33.0904C151.644 32.9501 151.614 32.8278 151.555 32.7233C151.496 32.6187 151.399 32.5388 151.264 32.4825C151.134 32.4222 150.956 32.3919 150.73 32.3919H149.354ZM150.368 31.2543C150.59 31.2543 150.77 31.232 150.908 31.1882C151.047 31.14 151.148 31.0699 151.211 30.9774C151.278 30.8809 151.312 30.7644 151.312 30.6282C151.312 30.508 151.29 30.4053 151.247 30.3213C151.207 30.2329 151.146 30.1605 151.063 30.1047C150.979 30.0484 150.875 30.0083 150.748 29.9841C150.626 29.956 150.481 29.9417 150.315 29.9417H149.354V31.2543H150.368Z" fill="#1E30D3"></path> <path fill-rule="evenodd" clip-rule="evenodd" d="M156.017 34.9891C156.412 35.1499 156.859 35.2303 157.358 35.2303C157.773 35.2303 158.143 35.174 158.468 35.0615C158.792 34.9453 159.069 34.7966 159.298 34.6162C159.532 34.4353 159.715 34.2468 159.85 34.0503L159.019 33.1352C158.825 33.3839 158.594 33.5706 158.325 33.6952C158.06 33.8154 157.773 33.8757 157.464 33.8757C157.215 33.8757 156.992 33.8315 156.794 33.743C156.6 33.6546 156.434 33.5304 156.296 33.3701C156.161 33.2093 156.056 33.0191 155.981 32.798C155.939 32.6685 155.91 32.5318 155.892 32.3884H159.993V31.6662C159.993 31.1888 159.931 30.7551 159.808 30.3661C159.686 29.9727 159.504 29.6355 159.262 29.3545C159.025 29.0736 158.731 28.857 158.378 28.7047C158.026 28.552 157.623 28.4756 157.168 28.4756C156.701 28.4756 156.282 28.5578 155.91 28.7226C155.538 28.8834 155.221 29.1138 154.96 29.4148C154.703 29.7158 154.505 30.0709 154.367 30.4805C154.228 30.8896 154.159 31.3411 154.159 31.8346V32.0753C154.159 32.509 154.232 32.9186 154.379 33.3035C154.525 33.685 154.735 34.0204 155.008 34.3089C155.285 34.5978 155.621 34.8247 156.017 34.9891ZM155.913 31.233C155.922 31.1674 155.933 31.103 155.945 31.0405C155.997 30.7953 156.072 30.5827 156.171 30.4019C156.273 30.2214 156.406 30.0812 156.569 29.9807C156.731 29.8802 156.925 29.8302 157.15 29.8302C157.415 29.8302 157.633 29.8865 157.803 29.9986C157.973 30.1111 158.099 30.2639 158.183 30.4563C158.27 30.6448 158.313 30.8596 158.313 31.1004V31.233H155.913Z" fill="#1E30D3"></path> <path fill-rule="evenodd" clip-rule="evenodd" d="M162.676 34.5438V37.6143H160.967V28.5962H162.552L162.616 29.2371C162.789 29.02 162.991 28.8467 163.222 28.7163C163.511 28.556 163.849 28.4756 164.237 28.4756C164.644 28.4756 165.002 28.5537 165.311 28.7105C165.624 28.8668 165.885 29.0915 166.094 29.3845C166.308 29.6779 166.468 30.0267 166.575 30.4322C166.686 30.8378 166.741 31.2871 166.741 31.7806V31.907C166.741 32.3808 166.686 32.8203 166.575 33.2254C166.468 33.6309 166.31 33.9842 166.1 34.2848C165.891 34.5822 165.629 34.8145 165.317 34.9833C165.008 35.1476 164.652 35.2303 164.249 35.2303C163.857 35.2303 163.517 35.1499 163.228 34.9891C163.021 34.8743 162.836 34.7256 162.676 34.5438ZM162.676 33.1999C162.767 33.3942 162.895 33.551 163.062 33.6711C163.252 33.8073 163.501 33.8757 163.81 33.8757C164.035 33.8757 164.225 33.8256 164.379 33.7252C164.534 33.6206 164.658 33.4782 164.753 33.2977C164.852 33.1173 164.921 32.9083 164.961 32.6716C165.004 32.4349 165.026 32.1799 165.026 31.907V31.7806C165.026 31.5037 165.002 31.2487 164.955 31.0164C164.911 30.7793 164.84 30.5729 164.741 30.3961C164.646 30.2196 164.52 30.083 164.362 29.9865C164.207 29.8865 164.019 29.8364 163.798 29.8364C163.564 29.8364 163.365 29.8744 163.198 29.9508C163.037 30.0267 162.904 30.137 162.801 30.2817C162.754 30.3474 162.712 30.4193 162.676 30.497V33.1999Z" fill="#1E30D3"></path> <path d="M171.012 33.7555C170.85 33.8355 170.664 33.8757 170.454 33.8757C170.201 33.8757 169.995 33.8234 169.837 33.7189C169.678 33.6148 169.554 33.4724 169.463 33.2919C169.376 33.1111 169.317 32.9043 169.285 32.6716C169.253 32.4389 169.237 32.1959 169.237 31.9431V31.7685C169.237 31.5157 169.253 31.275 169.285 31.0463C169.321 30.8136 169.382 30.6069 169.469 30.426C169.556 30.2415 169.678 30.0968 169.837 29.9928C169.995 29.8847 170.199 29.8302 170.448 29.8302C170.682 29.8302 170.877 29.8847 171.036 29.9928C171.198 30.0968 171.32 30.2375 171.404 30.4144C171.491 30.5908 171.536 30.7873 171.54 31.0039H173.148C173.144 30.4863 173.027 30.0392 172.798 29.6618C172.572 29.2804 172.26 28.9874 171.861 28.7824C171.465 28.5779 171.004 28.4756 170.478 28.4756C169.983 28.4756 169.552 28.56 169.184 28.7284C168.816 28.8972 168.51 29.1317 168.264 29.4327C168.019 29.7301 167.835 30.079 167.713 30.4805C167.59 30.8775 167.528 31.3072 167.528 31.7685V31.9431C167.528 32.4009 167.59 32.8301 167.713 33.2312C167.835 33.6287 168.019 33.9779 168.264 34.279C168.51 34.576 168.816 34.8087 169.184 34.9775C169.556 35.1459 169.991 35.2303 170.49 35.2303C170.984 35.2303 171.431 35.1298 171.831 34.9292C172.23 34.7242 172.549 34.4456 172.786 34.0923C173.023 33.7354 173.144 33.3277 173.148 32.8703H171.54C171.536 33.0749 171.486 33.2535 171.392 33.4063C171.301 33.5546 171.174 33.6711 171.012 33.7555Z" fill="#1E30D3"></path> <path d="M177.997 28.5996L175.843 32.6933V28.5996H174.134V35.1131H175.843L177.997 31.0136V35.1131H179.706V28.5996H177.997Z" fill="#1E30D3"></path> <path d="M184.295 35.1131V29.9417H186.36V28.5996H180.544V29.9417H182.58V35.1131H184.295Z" fill="#1E30D3"></path> <path fill-rule="evenodd" clip-rule="evenodd" d="M188.432 34.9891C188.827 35.1499 189.274 35.2303 189.773 35.2303C190.189 35.2303 190.558 35.174 190.883 35.0615C191.207 34.9453 191.484 34.7966 191.713 34.6162C191.947 34.4353 192.131 34.2468 192.265 34.0503L191.435 33.1352C191.241 33.3839 191.009 33.5706 190.74 33.6952C190.475 33.8154 190.189 33.8757 189.88 33.8757C189.63 33.8757 189.407 33.8315 189.209 33.743C189.016 33.6546 188.849 33.5304 188.711 33.3701C188.576 33.2093 188.471 33.0191 188.396 32.798C188.355 32.6685 188.325 32.5318 188.308 32.3884H192.408V31.6662C192.408 31.1888 192.346 30.7551 192.224 30.3661C192.101 29.9727 191.919 29.6355 191.678 29.3545C191.44 29.0736 191.146 28.857 190.794 28.7047C190.442 28.552 190.038 28.4756 189.583 28.4756C189.116 28.4756 188.697 28.5578 188.325 28.7226C187.953 28.8834 187.637 29.1138 187.376 29.4148C187.118 29.7158 186.92 30.0709 186.782 30.4805C186.644 30.8896 186.574 31.3411 186.574 31.8346V32.0753C186.574 32.509 186.648 32.9186 186.794 33.3035C186.941 33.685 187.15 34.0204 187.423 34.3089C187.7 34.5978 188.036 34.8247 188.432 34.9891ZM188.328 31.233C188.338 31.1674 188.348 31.103 188.361 31.0405C188.412 30.7953 188.487 30.5827 188.586 30.4019C188.689 30.2214 188.822 30.0812 188.984 29.9807C189.146 29.8802 189.34 29.8302 189.565 29.8302C189.83 29.8302 190.048 29.8865 190.218 29.9986C190.388 30.1111 190.515 30.2639 190.598 30.4563C190.685 30.6448 190.728 30.8596 190.728 31.1004V31.233H188.328Z" fill="#1E30D3"></path> <path d="M196.577 35.1131V29.9417H198.642V28.5996H192.826V29.9417H194.862V35.1131H196.577Z" fill="#1E30D3"></path> <path fill-rule="evenodd" clip-rule="evenodd" d="M134.123 5.819V5.9454C134.123 6.41926 134.19 6.85829 134.325 7.26382C134.459 7.66533 134.655 8.01637 134.912 8.31739C135.173 8.61439 135.492 8.8453 135.867 9.00965C136.247 9.17401 136.68 9.25664 137.167 9.25664C137.654 9.25664 138.085 9.17401 138.461 9.00965C138.837 8.8453 139.153 8.61439 139.41 8.31739C139.671 8.01637 139.869 7.66533 140.004 7.26382C140.138 6.85829 140.205 6.41926 140.205 5.9454V5.819C140.205 5.34156 140.138 4.90209 140.004 4.50058C139.869 4.09505 139.671 3.744 139.41 3.447C139.153 3.15044 138.835 2.91954 138.455 2.75474C138.075 2.58636 137.642 2.50195 137.155 2.50195C136.669 2.50195 136.237 2.58636 135.861 2.75474C135.486 2.91954 135.169 3.15044 134.912 3.447C134.655 3.744 134.459 4.09505 134.325 4.50058C134.19 4.90209 134.123 5.34156 134.123 5.819ZM135.832 5.9454V5.819C135.832 5.55415 135.856 5.30539 135.903 5.0727C135.95 4.83554 136.026 4.62697 136.129 4.44654C136.235 4.26208 136.372 4.11738 136.538 4.01287C136.708 3.9088 136.914 3.85655 137.155 3.85655C137.396 3.85655 137.602 3.9088 137.772 4.01287C137.942 4.11738 138.079 4.26208 138.182 4.44654C138.289 4.62697 138.366 4.83554 138.413 5.0727C138.465 5.30539 138.49 5.55415 138.49 5.819V5.9454C138.49 6.21828 138.465 6.4733 138.413 6.71001C138.366 6.94671 138.291 7.15574 138.188 7.33617C138.085 7.51259 137.948 7.65148 137.778 7.75152C137.608 7.85201 137.404 7.90204 137.167 7.90204C136.922 7.90204 136.714 7.85201 136.544 7.75152C136.374 7.65148 136.235 7.51259 136.129 7.33617C136.026 7.15574 135.95 6.94671 135.903 6.71001C135.856 6.4733 135.832 6.21828 135.832 5.9454Z" fill="#1E30D3"></path> <path d="M144.465 7.7819C144.302 7.86184 144.116 7.90204 143.907 7.90204C143.654 7.90204 143.448 7.84978 143.29 7.74527C143.131 7.64121 143.007 7.49874 142.916 7.3183C142.829 7.13742 142.769 6.93064 142.738 6.69795C142.706 6.46526 142.69 6.2223 142.69 5.96951V5.79488C142.69 5.5421 142.706 5.30137 142.738 5.0727C142.773 4.84001 142.835 4.63323 142.922 4.45234C143.009 4.26789 143.131 4.12319 143.29 4.01912C143.448 3.91104 143.652 3.85655 143.901 3.85655C144.134 3.85655 144.33 3.91104 144.488 4.01912C144.651 4.12319 144.773 4.26387 144.856 4.44073C144.943 4.61715 144.989 4.81366 144.993 5.03027H146.601C146.597 4.51263 146.48 4.06557 146.251 3.68818C146.025 3.30676 145.713 3.01378 145.313 2.80878C144.917 2.60423 144.457 2.50195 143.93 2.50195C143.436 2.50195 143.005 2.58636 142.637 2.75474C142.269 2.92356 141.962 3.15804 141.717 3.45906C141.472 3.75651 141.288 4.10532 141.165 4.50683C141.042 4.90387 140.981 5.33352 140.981 5.79488V5.96951C140.981 6.4273 141.042 6.8565 141.165 7.25756C141.288 7.65505 141.472 8.00431 141.717 8.30533C141.962 8.60234 142.269 8.83502 142.637 9.00385C143.009 9.17222 143.444 9.25664 143.942 9.25664C144.437 9.25664 144.884 9.15614 145.283 8.95561C145.683 8.75061 146.001 8.47192 146.239 8.11865C146.476 7.7618 146.597 7.35403 146.601 6.89669H144.993C144.989 7.10124 144.939 7.2799 144.844 7.43264C144.753 7.58092 144.627 7.69749 144.465 7.7819Z" fill="#1E30D3"></path> <path d="M150.862 9.13948V3.96806H152.927V2.62598H147.112V3.96806H149.147V9.13948H150.862Z" fill="#1E30D3"></path> <path fill-rule="evenodd" clip-rule="evenodd" d="M155.509 8.57062V11.6407H153.8V2.62254H155.385L155.448 3.26344C155.622 3.04638 155.824 2.87309 156.055 2.74268C156.344 2.58235 156.682 2.50195 157.07 2.50195C157.477 2.50195 157.835 2.58011 158.144 2.73688C158.457 2.89319 158.717 3.11784 158.927 3.41083C159.141 3.70426 159.301 4.05306 159.408 4.45859C159.519 4.86412 159.574 5.31342 159.574 5.80694V5.93333C159.574 6.4072 159.519 6.84667 159.408 7.25175C159.301 7.65728 159.143 8.01057 158.933 8.31114C158.723 8.60859 158.462 8.84083 158.15 9.00965C157.841 9.17401 157.485 9.25664 157.082 9.25664C156.69 9.25664 156.35 9.17624 156.061 9.01546C155.853 8.90068 155.669 8.75195 155.509 8.57062ZM155.509 7.22719C155.6 7.42103 155.728 7.57734 155.895 7.69748C156.085 7.8337 156.334 7.90204 156.643 7.90204C156.868 7.90204 157.058 7.85201 157.212 7.75152C157.366 7.64701 157.491 7.50454 157.586 7.32411C157.685 7.14367 157.754 6.93466 157.794 6.69795C157.837 6.46124 157.859 6.20622 157.859 5.93333V5.80694C157.859 5.53003 157.835 5.27501 157.788 5.04277C157.744 4.80562 157.673 4.59928 157.574 4.42242C157.479 4.24601 157.352 4.10934 157.194 4.01287C157.04 3.91282 156.852 3.8628 156.631 3.8628C156.397 3.8628 156.198 3.90077 156.031 3.97714C155.869 4.05307 155.737 4.16338 155.633 4.30809C155.587 4.37374 155.545 4.44519 155.509 4.52291V7.22719Z" fill="#1E30D3"></path> <path fill-rule="evenodd" clip-rule="evenodd" d="M160.363 5.819V5.9454C160.363 6.41926 160.431 6.85829 160.565 7.26382C160.7 7.66533 160.895 8.01637 161.152 8.31739C161.413 8.61439 161.732 8.8453 162.108 9.00965C162.487 9.17401 162.921 9.25664 163.407 9.25664C163.894 9.25664 164.325 9.17401 164.701 9.00965C165.077 8.8453 165.393 8.61439 165.65 8.31739C165.912 8.01637 166.109 7.66533 166.244 7.26382C166.378 6.85829 166.446 6.41926 166.446 5.9454V5.819C166.446 5.34156 166.378 4.90209 166.244 4.50058C166.109 4.09505 165.912 3.744 165.65 3.447C165.393 3.15044 165.075 2.91954 164.695 2.75474C164.315 2.58636 163.882 2.50195 163.396 2.50195C162.909 2.50195 162.478 2.58636 162.102 2.75474C161.726 2.91954 161.409 3.15044 161.152 3.447C160.895 3.744 160.7 4.09505 160.565 4.50058C160.431 4.90209 160.363 5.34156 160.363 5.819ZM162.072 5.9454V5.819C162.072 5.55415 162.096 5.30539 162.143 5.0727C162.191 4.83554 162.266 4.62697 162.369 4.44654C162.475 4.26208 162.612 4.11738 162.779 4.01287C162.948 3.9088 163.154 3.85655 163.396 3.85655C163.637 3.85655 163.842 3.9088 164.013 4.01287C164.183 4.11738 164.319 4.26208 164.422 4.44654C164.529 4.62697 164.606 4.83554 164.654 5.0727C164.705 5.30539 164.73 5.55415 164.73 5.819V5.9454C164.73 6.21828 164.705 6.4733 164.654 6.71001C164.606 6.94671 164.531 7.15574 164.428 7.33617C164.325 7.51259 164.189 7.65148 164.018 7.75152C163.849 7.85201 163.644 7.90204 163.407 7.90204C163.162 7.90204 162.955 7.85201 162.784 7.75152C162.614 7.65148 162.475 7.51259 162.369 7.33617C162.266 7.15574 162.191 6.94671 162.143 6.71001C162.096 6.4733 162.072 6.21828 162.072 5.9454Z" fill="#1E30D3"></path> <path d="M173.085 2.62598L171.4 7.14711L169.726 2.62598H167.607V9.13948H169.317V5.20074L170.824 9.13948H171.975L173.524 5.11097V9.13948H175.233V2.62598H173.085Z" fill="#1E30D3"></path> <path d="M179.938 7.7819C179.776 7.86184 179.59 7.90204 179.38 7.90204C179.127 7.90204 178.921 7.84978 178.763 7.74527C178.605 7.64121 178.48 7.49874 178.39 7.3183C178.302 7.13742 178.243 6.93064 178.211 6.69795C178.18 6.46526 178.164 6.2223 178.164 5.96951V5.79488C178.164 5.5421 178.18 5.30137 178.211 5.0727C178.247 4.84001 178.308 4.63323 178.395 4.45234C178.482 4.26789 178.605 4.12319 178.763 4.01912C178.921 3.91104 179.125 3.85655 179.374 3.85655C179.608 3.85655 179.804 3.91104 179.962 4.01912C180.124 4.12319 180.247 4.26387 180.33 4.44073C180.417 4.61715 180.462 4.81366 180.466 5.03027H182.075C182.071 4.51263 181.954 4.06557 181.724 3.68818C181.499 3.30676 181.186 3.01378 180.786 2.80878C180.391 2.60423 179.93 2.50195 179.404 2.50195C178.91 2.50195 178.478 2.58636 178.11 2.75474C177.742 2.92356 177.436 3.15804 177.191 3.45906C176.945 3.75651 176.761 4.10532 176.639 4.50683C176.516 4.90387 176.455 5.33352 176.455 5.79488V5.96951C176.455 6.4273 176.516 6.8565 176.639 7.25756C176.761 7.65505 176.945 8.00431 177.191 8.30533C177.436 8.60234 177.742 8.83502 178.11 9.00385C178.482 9.17222 178.917 9.25664 179.416 9.25664C179.91 9.25664 180.357 9.15614 180.757 8.95561C181.156 8.75061 181.475 8.47192 181.712 8.11865C181.95 7.7618 182.071 7.35403 182.075 6.89669H180.466C180.462 7.10124 180.413 7.2799 180.318 7.43264C180.227 7.58092 180.101 7.69749 179.938 7.7819Z" fill="#1E30D3"></path> <path d="M184.889 5.09981V2.62598H183.18V9.13948H184.889V6.70138H185.573L186.972 9.13948H189.262L186.978 5.69515L189.061 2.62598H186.895L185.512 5.09981H184.889Z" fill="#1E30D3"></path> <path fill-rule="evenodd" clip-rule="evenodd" d="M189.358 5.819V5.9454C189.358 6.41926 189.426 6.85829 189.56 7.26382C189.694 7.66533 189.89 8.01637 190.147 8.31739C190.408 8.61439 190.727 8.8453 191.103 9.00965C191.483 9.17401 191.916 9.25664 192.402 9.25664C192.889 9.25664 193.32 9.17401 193.696 9.00965C194.072 8.8453 194.388 8.61439 194.645 8.31739C194.906 8.01637 195.105 7.66533 195.239 7.26382C195.374 6.85829 195.441 6.41926 195.441 5.9454V5.819C195.441 5.34156 195.374 4.90209 195.239 4.50058C195.105 4.09505 194.906 3.744 194.645 3.447C194.388 3.15044 194.07 2.91954 193.69 2.75474C193.311 2.58636 192.877 2.50195 192.39 2.50195C191.904 2.50195 191.473 2.58636 191.097 2.75474C190.721 2.91954 190.404 3.15044 190.147 3.447C189.89 3.744 189.694 4.09505 189.56 4.50058C189.426 4.90209 189.358 5.34156 189.358 5.819ZM191.067 5.9454V5.819C191.067 5.55415 191.091 5.30539 191.138 5.0727C191.186 4.83554 191.261 4.62697 191.364 4.44654C191.471 4.26208 191.607 4.11738 191.773 4.01287C191.944 3.9088 192.149 3.85655 192.39 3.85655C192.632 3.85655 192.838 3.9088 193.007 4.01287C193.178 4.11738 193.314 4.26208 193.417 4.44654C193.524 4.62697 193.601 4.83554 193.648 5.0727C193.7 5.30539 193.726 5.55415 193.726 5.819V5.9454C193.726 6.21828 193.7 6.4733 193.648 6.71001C193.601 6.94671 193.526 7.15574 193.423 7.33617C193.32 7.51259 193.183 7.65148 193.014 7.75152C192.843 7.85201 192.64 7.90204 192.402 7.90204C192.157 7.90204 191.949 7.85201 191.779 7.75152C191.609 7.65148 191.471 7.51259 191.364 7.33617C191.261 7.15574 191.186 6.94671 191.138 6.71001C191.091 6.4733 191.067 6.21828 191.067 5.9454Z" fill="#1E30D3"></path> <path d="M200.346 2.62598L198.192 6.7197V2.62598H196.483V9.13948H198.192L200.346 5.03996V9.13948H202.055V2.62598H200.346Z" fill="#1E30D3"></path> <path d="M201.366 0H200.15C200.15 0.209018 200.087 0.395258 199.96 0.56006C199.833 0.724863 199.616 0.807038 199.307 0.807038C198.995 0.807038 198.773 0.724863 198.642 0.56006C198.516 0.395258 198.453 0.209018 198.453 0H197.242C197.242 0.522099 197.426 0.947282 197.794 1.27644C198.166 1.6056 198.67 1.76995 199.307 1.76995C199.727 1.76995 200.091 1.69581 200.399 1.54754C200.708 1.39479 200.945 1.18622 201.111 0.921372C201.282 0.652506 201.366 0.345237 201.366 0Z" fill="#1E30D3"></path> <path d="M127.011 0.494141V9.2604H128.725V6.09163L129.406 5.26538L132.091 9.2604H134.255L130.694 4.31631L134.024 0.494141H131.909L128.725 4.36544V0.494141H127.011Z" fill="#1E30D3"></path> </svg> 